<?xml version="1.0" standalone="no"?>
<!DOCTYPE svg PUBLIC "-//W3C//DTD SVG 20010904//EN"
 "http://www.w3.org/TR/2001/REC-SVG-20010904/DTD/svg10.dtd">
<svg version="1.0" xmlns="http://www.w3.org/2000/svg"
 width="468pt" height="214pt" viewBox="0 0 468 214"
 preserveAspectRatio="xMidYMid meet">
<metadata>
Created by POTRACE VERSION , written by Peter Selinger 2001-2007
</metadata>
<g transform="translate(0,214) scale(0.093600,-0.093600)"
fill="#000000" stroke="none">
<path d="M699 2182 c-22 -124 -16 -236 25 -420 20 -90 36 -168 36 -173 0 -18
-20 -8 -130 67 -166 113 -270 157 -216 92 55 -67 76 -126 76 -214 0 -65 -33
-311 -44 -321 -1 -1 -43 36 -93 82 -89 81 -130 111 -139 102 -2 -2 4 -33 15
-68 30 -97 44 -188 37 -244 -8 -66 -28 -189 -32 -194 -2 -2 -20 10 -41 27 -60
47 -165 112 -181 112 -11 0 -13 -9 -7 -46 17 -116 136 -444 202 -555 51 -88
137 -169 225 -212 72 -35 227 -81 255 -75 8 2 -15 28 -57 63 -82 69 -188 197
-253 305 -77 128 -74 139 28 95 41 -18 61 -23 70 -15 8 6 14 52 18 128 3 64
12 137 20 162 16 50 15 51 37 -55 12 -57 95 -235 110 -235 19 0 21 48 5 141
-12 66 -15 118 -10 177 9 120 17 135 38 74 18 -49 56 -95 108 -133 l28 -20 12
22 c14 27 5 112 -22 205 -26 92 -38 153 -30 159 4 2 13 -12 20 -32 8 -20 41
-81 75 -137 l61 -101 -1 -128 c-1 -88 2 -127 9 -124 6 2 35 48 65 103 79 144
110 174 85 82 -21 -79 -21 -234 1 -283 l17 -40 17 23 c10 12 28 51 42 85 13
34 27 66 30 70 16 18 34 -61 34 -143 -1 -71 -6 -96 -32 -157 -39 -93 -81 -152
-160 -231 l-64 -63 64 24 c101 39 259 122 305 161 61 53 132 167 164 260 26
78 83 349 77 366 -2 4 -34 -28 -72 -72 -37 -43 -70 -77 -73 -74 -3 3 0 35 7
72 15 78 8 335 -11 399 l-12 40 -12 -41 c-15 -50 -72 -158 -94 -178 -10 -9
-32 -19 -49 -22 -38 -8 -36 -24 -37 246 0 211 -6 231 -90 325 l-44 50 -1 -103
c0 -57 -5 -123 -11 -147 -11 -44 -54 -99 -69 -90 -4 3 -11 51 -15 107 -10 139
-30 198 -129 372 -90 157 -139 276 -151 363 -4 29 -10 55 -15 58 -4 2 -14 -30
-21 -73z"/>
<path d="M1881 2057 c-48 -24 -64 -60 -65 -139 0 -116 40 -167 123 -154 72 11
106 79 99 195 -4 54 -8 67 -32 87 -30 27 -85 32 -125 11z"/>
<path d="M4003 2060 c-42 -17 -63 -67 -63 -148 0 -85 16 -124 59 -142 60 -25
125 7 150 73 14 37 14 149 0 180 -19 42 -90 60 -146 37z"/>
<path d="M2365 1619 c-33 -5 -89 -23 -125 -41 l-65 -33 -3 -450 c-1 -248 -1
-454 2 -460 2 -6 44 -8 112 -5 l109 5 5 375 5 375 39 19 c32 16 46 17 78 9 38
-10 38 -10 48 26 14 51 12 134 -3 155 -13 17 -80 36 -122 34 -11 0 -47 -4 -80
-9z"/>
<path d="M2782 1601 c-96 -33 -141 -100 -142 -206 0 -90 36 -156 168 -305 118
-132 142 -169 142 -218 0 -47 -29 -74 -86 -79 -43 -4 -124 10 -175 31 -20 9
-39 -32 -46 -102 -7 -66 9 -86 85 -108 78 -23 250 -16 313 13 110 50 162 130
163 252 0 101 -27 159 -130 275 -136 152 -164 187 -170 213 -9 34 22 63 72 70
35 4 132 -13 177 -32 13 -6 21 2 37 36 58 128 -14 179 -248 179 -77 -1 -122
-6 -160 -19z"/>
<path d="M3417 1604 c-67 -21 -121 -77 -137 -144 -28 -115 9 -196 172 -380 60
-69 114 -135 119 -148 16 -42 11 -97 -11 -117 -31 -28 -113 -30 -188 -7 l-64
20 -13 -31 c-7 -18 -16 -53 -20 -79 -6 -43 -5 -49 20 -72 37 -35 113 -49 232
-44 88 3 107 7 165 36 108 53 154 137 146 265 -6 96 -33 144 -149 273 -121
132 -149 171 -149 206 0 24 6 32 35 44 52 21 90 18 210 -21 46 -14 75 125 36
164 -11 11 -43 27 -72 35 -69 21 -265 20 -332 0z"/>
<path d="M1887 1590 c-76 -14 -72 14 -72 -502 l0 -461 104 2 c58 1 109 4 113
7 4 3 8 221 8 485 l0 479 -57 -1 c-32 -1 -75 -5 -96 -9z"/>
<path d="M4008 1591 c-72 -15 -68 18 -68 -500 l0 -466 97 3 c54 2 104 5 111 7
9 3 12 109 12 485 l0 480 -57 -1 c-32 -1 -75 -5 -95 -8z"/>
<path d="M1900 355 c0 -97 4 -155 10 -155 6 0 10 36 10 89 0 93 4 101 50 101
25 0 30 -19 30 -111 0 -46 4 -79 10 -79 12 0 13 179 1 199 -6 10 -21 12 -50 8
l-41 -5 0 54 c0 30 -4 54 -10 54 -6 0 -10 -58 -10 -155z"/>
<path d="M2476 503 c-3 -3 -6 -73 -6 -155 0 -125 2 -148 15 -148 13 0 15 23
15 149 0 136 -5 172 -24 154z"/>
<path d="M3400 503 c-24 -9 -40 -35 -40 -65 0 -18 -5 -28 -15 -28 -8 0 -15 -4
-15 -10 0 -5 7 -10 15 -10 12 0 15 -17 15 -95 0 -57 4 -95 10 -95 6 0 10 38
10 95 0 95 0 95 25 95 14 0 25 5 25 10 0 6 -11 10 -25 10 -20 0 -25 5 -25 24
0 33 27 59 57 53 15 -3 22 0 20 7 -4 12 -35 18 -57 9z"/>
<path d="M3686 503 c-3 -3 -6 -73 -6 -155 0 -123 2 -148 15 -148 11 0 15 19
17 93 l3 92 30 0 c35 0 43 -19 44 -117 1 -38 5 -68 11 -68 6 0 10 36 10 88 0
107 -10 126 -63 120 l-37 -4 0 47 c0 45 -10 66 -24 52z"/>
<path d="M4163 495 c-12 -8 -25 -30 -29 -47 -3 -18 -14 -38 -23 -45 -15 -11
-14 -12 2 -13 15 0 17 -11 17 -95 0 -78 3 -95 15 -95 12 0 15 17 15 95 0 88 1
95 20 95 11 0 20 5 20 10 0 6 -9 10 -20 10 -16 0 -20 7 -20 30 0 33 29 55 60
45 24 -8 27 10 4 19 -24 9 -38 7 -61 -9z"/>
<path d="M2550 479 c0 -11 5 -17 10 -14 6 3 10 13 10 21 0 8 -4 14 -10 14 -5
0 -10 -9 -10 -21z"/>
<path d="M1790 445 c0 -24 -5 -35 -15 -35 -8 0 -15 -4 -15 -10 0 -5 7 -10 15
-10 12 0 15 -16 15 -88 0 -55 4 -92 12 -100 15 -15 58 -16 58 -2 0 6 -9 10
-20 10 -25 0 -32 27 -28 110 3 59 5 65 26 68 30 5 28 22 -3 22 -22 0 -25 4
-25 35 0 19 -4 35 -10 35 -5 0 -10 -16 -10 -35z"/>
<path d="M2970 446 c0 -26 -5 -35 -22 -40 -22 -7 -22 -7 -3 -15 17 -7 21 -20
25 -102 4 -80 8 -94 23 -97 10 -2 26 0 35 4 14 6 13 8 -8 13 -24 7 -25 11 -28
94 l-3 87 26 0 c14 0 25 5 25 10 0 6 -11 10 -25 10 -22 0 -25 4 -25 35 0 19
-4 35 -10 35 -5 0 -10 -15 -10 -34z"/>
<path d="M3580 445 c0 -24 -5 -35 -15 -35 -19 0 -19 -16 0 -23 11 -5 15 -29
17 -99 3 -80 5 -93 21 -96 10 -2 26 0 35 4 14 6 13 8 -8 13 -24 7 -25 11 -28
94 l-3 87 26 0 c14 0 25 5 25 10 0 6 -11 10 -25 10 -22 0 -25 4 -25 35 0 19
-4 35 -10 35 -5 0 -10 -16 -10 -35z"/>
<path d="M4420 445 c0 -24 -5 -35 -15 -35 -8 0 -15 -4 -15 -10 0 -5 7 -10 15
-10 12 0 15 -16 15 -88 0 -55 4 -92 12 -100 15 -15 58 -16 58 -2 0 6 -9 10
-20 10 -25 0 -32 27 -28 110 3 59 5 65 26 68 30 5 28 22 -3 22 -22 0 -25 4
-25 35 0 19 -4 35 -10 35 -5 0 -10 -16 -10 -35z"/>
<path d="M2093 402 c-37 -23 -46 -159 -13 -192 25 -25 82 -27 101 -4 12 15 10
16 -28 10 -37 -7 -43 -5 -58 18 -25 38 -14 54 42 58 l48 3 -1 48 c0 31 -6 52
-15 58 -17 11 -60 11 -76 1z m67 -42 c10 -39 1 -50 -41 -50 -38 0 -39 1 -33
28 4 15 11 33 17 40 16 21 50 10 57 -18z"/>
<path d="M2355 396 c-28 -21 -35 -158 -10 -186 18 -20 49 -25 79 -14 28 11 17
24 -16 17 -41 -8 -58 15 -58 82 0 64 20 95 61 95 18 0 28 4 24 10 -9 15 -58
12 -80 -4z"/>
<path d="M2550 305 c0 -63 4 -105 10 -105 6 0 10 42 10 105 0 63 -4 105 -10
105 -6 0 -10 -42 -10 -105z"/>
<path d="M2634 389 c-28 -31 -28 -164 0 -185 30 -21 106 -16 106 7 0 5 -17 7
-38 3 -42 -7 -58 5 -64 46 -3 23 0 25 47 30 49 5 50 5 53 42 2 20 -2 46 -8 58
-15 28 -70 27 -96 -1z m78 -23 c16 -37 4 -56 -37 -56 -32 0 -35 3 -35 28 0 52
51 72 72 28z"/>
<path d="M2787 403 c-11 -10 -8 -203 3 -203 5 0 11 42 12 93 l3 92 35 0 35 0
3 -92 c4 -119 22 -122 22 -4 0 118 -2 121 -59 121 -26 0 -51 -3 -54 -7z"/>
<path d="M3196 391 c-33 -37 -33 -152 0 -186 25 -25 71 -19 91 12 21 32 24
136 5 171 -16 29 -71 30 -96 3z m72 -13 c15 -15 16 -122 2 -149 -12 -21 -40
-25 -58 -7 -15 15 -16 122 -2 149 12 21 40 25 58 7z"/>
<path d="M3866 388 c-24 -34 -22 -159 2 -181 19 -17 57 -22 86 -11 29 11 16
25 -17 19 -40 -8 -67 13 -67 51 0 22 4 24 50 24 l50 0 0 48 c0 26 -5 53 -12
60 -21 21 -75 15 -92 -10z m82 -40 l3 -38 -40 0 c-44 0 -49 8 -31 55 8 21 16
26 38 23 23 -3 27 -8 30 -40z"/>
<path d="M4230 312 c0 -109 6 -122 56 -122 63 0 64 2 64 116 0 133 -18 138
-22 7 l-3 -98 -29 -3 c-16 -2 -32 2 -37 10 -5 7 -9 52 -9 101 0 51 -4 87 -10
87 -6 0 -10 -39 -10 -98z"/>
<path d="M4530 316 c0 -107 10 -126 64 -126 60 0 67 14 64 120 -2 55 -7 95
-13 95 -6 0 -12 -42 -15 -95 -5 -90 -6 -95 -28 -98 -43 -6 -52 13 -52 109 0
53 -4 89 -10 89 -6 0 -10 -38 -10 -94z"/>
<path d="M4712 398 c-8 -8 -12 -46 -12 -105 0 -75 3 -93 15 -93 11 0 15 19 17
93 l3 92 28 3 c15 2 27 8 27 13 0 13 -64 11 -78 -3z"/>
<path d="M4833 383 c-26 -39 -25 -143 1 -172 19 -21 58 -27 90 -15 28 11 17
26 -13 19 -42 -9 -71 9 -71 45 0 29 1 30 50 30 l50 0 0 48 c0 57 -12 72 -57
72 -24 0 -37 -7 -50 -27z m85 -35 l3 -38 -40 0 c-35 0 -41 3 -41 21 0 38 19
60 48 57 23 -3 27 -8 30 -40z"/>
</g>
</svg>
